# xmcd
# 
# Track frame offsets:
#     150
#     9932
#     22180
#     34315
#     47885
#     60608
#     77616
#     86327
#     100861
#     113248
#     126101
#     140602
#     175300
#     187401
#     202399
# 
# Disc length: 2816
# 
# Revision: 3
# Processed by: cddbd v1.5.2PL0 Copyright (c) Steve Scherf et al.
# Submitted via: BonkEnc v1.0.6
# 
DISCID=d70afe0f
DTITLE=Mojo - Roots Of Led Zeppelin
DYEAR=2004
DGENRE=Blues
TTITLE0=Little Richard - Long Tall Sally
TTITLE1=Garnet Mimms - As Long As I Have You
TTITLE2=Travelling Riverside Blues - Robert Johnson
TTITLE3=Bukka White - Shake 'Em On Down
TTITLE4=Santo and Johnny - Summertime
TTITLE5=Bert Jansch - Blackwater Side
TTITLE6=John Redbourn - Nobody's Fault But Mine
TTITLE7=Spirit - Fresh Garbage
TTITLE8=Muddy Waters - You Need Love
TTITLE9=Howlin' Wolf - Killing Floor
TTITLE10=Blind Willie Johnson - In My Time Of Dying
TTITLE11=Davey Graham - She Moved Thru The Bizarre/Blue Ragga
TTITLE12=Joan Baez - Babe, I'm Gonne Leave You
TTITLE13=John Fahey - Dance Of The Inhabitants Of The Palace Of King Phillip XIV Of Spain
TTITLE14=Owen Hand - She Likes It
EXTD=plexi
EXTT0=
EXTT1=
EXTT2=
EXTT3=
EXTT4=
EXTT5=
EXTT6=
EXTT7=
EXTT8=
EXTT9=
EXTT10=
EXTT11=
EXTT12=
EXTT13=
EXTT14=
PLAYORDER=
